# xmcd
#
# Track frame offsets:
#	150
#	18430
#	36840
#	48680
#	53760
#	58622
#	61085
#	63552
#	66600
#	81092
#	89575
#	102912
#	118127
#	134017
#	151710
#	166425
#	169042
#	171167
#	172602
#	177327
#	191922
#	195860
#	199035
#	203282
#	207985
#	212150
#	217732
#	232457
#
# Disc length: 3413 seconds
#
# Revision: 0
# Processed by: cddbd v1.5.1PL0 Copyright (c) Steve Scherf et al.
# Submitted via: dBpowerAMP V4.0
#
DISCID=980d531c
DTITLE=Various Artist - Reflections of Scotland
DYEAR=1900
DGENRE=National Folk
TTITLE0=Loch Lomond - Bill Garden Orchestra
TTITLE1=Amazing Grace - Ann Williamson
TTITLE2=Let's Have a Ceilidh - The Alexander Brothers
TTITLE3=The Green Hills Of Tyrol - Pipe and Drums
TTITLE4=The Battles O'er - Pipe and Drums
TTITLE5=The Deil Among the Tailors - Jim Mcleod and his Band
TTITLE6=Kenmuir's On and Awa'- Jim Mcleod and his Band
TTITLE7=Paddy on the Railroad- Jim Mcleod and his Band
TTITLE8=Wild Mountain Thyme - Sydney Divine
TTITLE9=The Blue Bell Polka - Stuart Anderson
TTITLE10=The Barra's - Alastair McDonald
TTITLE11=Ballad of Glencoe - Ann Williamson
TTITLE12=A Scottish Soldier - Andy Stewart
TTITLE13=Scotland Forever - Bill Garden Orchestra
TTITLE14=The Star O' Rabbie Burns - Bill McCue
TTITLE15=The Keel Row - Jim McLeod and his Band
TTITLE16=Orange and Blue - Jim McLeod and his Band
TTITLE17=High Road to Linton - Jim McLeod and his Band
TTITLE18=The Kilt is my Delight - Jim McLeod and his Band
TTITLE19=The Water is Wide - Ann Williamson
TTITLE20=Comin' Through the Rye - Highland Fiddle Orchestra
TTITLE21=Scots Wha Ha'e - Highland Fiddle Orchestra
TTITLE22=Ye Banks And Braes - Highland Fiddle Orchestra
TTITLE23=Barnyards of Delgaty - The Alexander Brothers
TTITLE24=Lass Of Fyvie- The Alexander Brothers
TTITLE25=Muckin' O' Georgie's Byre- The Alexander Brothers
TTITLE26=Flower Of Scotland - Pipes and Drums
TTITLE27=The Castle Walls - Bill Garden Orchestra
EXTD=
EXTT0=
EXTT1=
EXTT2=
EXTT3=
EXTT4=
EXTT5=
EXTT6=
EXTT7=
EXTT8=
EXTT9=
EXTT10=
EXTT11=
EXTT12=
EXTT13=
EXTT14=
EXTT15=
EXTT16=
EXTT17=
EXTT18=
EXTT19=
EXTT20=
EXTT21=
EXTT22=
EXTT23=
EXTT24=
EXTT25=
EXTT26=
EXTT27=
PLAYORDER=
